# xmcd
#
# Track frame offsets:
#	150
#	19731
#	33539
#	53420
#	66872
#	80922
#	96188
#	121824
#	135183
#	148772
#	166543
#	190608
#	208880
#	225967
#	237950
#	254188
#	268473
#	286732
#	304910
#
# Disc length: 4445 seconds
#
# Revision: 0
# Processed by: cddbd v1.5.2PL0 Copyright (c) Steve Scherf et al.
# Submitted via: EZCDAudioConverter 2.1.7.1
#
DISCID=0c115b13
DTITLE=V/A - Oté Maloya
DYEAR=1900
DGENRE=
TTITLE0=Caméléon - La Rosée Si Feuilles Songes
TTITLE1=Michou - Maloya Ton Tisane
TTITLE2=Jean Claude Viadère - Moin La Pas Fait Tout Seul
TTITLE3=Daniel Sandié - Défoule 3e Age
TTITLE4=Cormoran Group - P'tit Femme Mon Gâté
TTITLE5=Marie Hélen Et Ses Créol's - Séga Le Sport
TTITLE6=Françoise Guimbert - Tantine Zaza
TTITLE7=Vivi - Toé Même Maloya
TTITLE8=Pierrot Vidot - Commandeur
TTITLE9=Hervé Imare - Mele-Mele Pas Toué P'tit Pierre
TTITLE10=Groupe Dago - Réveil Créole
TTITLE11=Ti Fock - Sé Pi Bodié
TTITLE12=Gaby Et Les Soul Men - C'est Le Même Cadence
TTITLE13=Vivi - Mi Bord' A Toé
TTITLE14=Maxime Lahope - Sous Pied D'Camélias
TTITLE15=Gilberte - Serre Serre Pas
TTITLE16=Gaby Et Les Soul Men - Oh Maloya
TTITLE17=Hervé Imare - Mi Donne A Toué Grand Cœur
TTITLE18=Carrousel - Oté Maloya
EXTD=
EXTT0=
EXTT1=
EXTT2=
EXTT3=
EXTT4=
EXTT5=
EXTT6=
EXTT7=
EXTT8=
EXTT9=
EXTT10=
EXTT11=
EXTT12=
EXTT13=
EXTT14=
EXTT15=
EXTT16=
EXTT17=
EXTT18=
PLAYORDER=
